inDegrees=yes
name=ik_S50_A06_T01
DataType=double
version=3
OpenSimVersion=4.3-2021-08-27-4bc7ad9
endheader
time	pelvis_tilt	pelvis_list	pelvis_rotation	pelvis_tx	pelvis_ty	pelvis_tz	hip_flexion_r	hip_adduction_r	hip_rotation_r	knee_angle_r	knee_angle_r_beta	ankle_angle_r	subtalar_angle_r	mtp_angle_r	hip_flexion_l	hip_adduction_l	hip_rotation_l	knee_angle_l	knee_angle_l_beta	ankle_angle_l	subtalar_angle_l	mtp_angle_l	lumbar_extension	lumbar_bending	lumbar_rotation	arm_flex_r	arm_add_r	arm_rot_r	elbow_flex_r	pro_sup_r	wrist_flex_r	wrist_dev_r	arm_flex_l	arm_add_l	arm_rot_l	elbow_flex_l	pro_sup_l	wrist_flex_l	wrist_dev_l
7.739999999999923	-4.423081395735262	-0.2384920478955159	32.19651954537742	0	0.9399999999999999	0	40.56505853255077	-13.02402254238246	-11.64826384485528	48.13184751403276	0.8400592141877193	0	0	0	40.56505853255077	-13.02402254238246	-11.64826384485528	48.13184751403276	0.8400592141877193	0	0	0	-3.526769970414778	-0.784593394035381	0.4361888599571469	8.891058427264271	-6.623732376293989	-3.820796528578223	59.61002205811051	106.5047321218698	0	0	44.98078512128218	-16.65153599622476	-6.257995028723715	55.77568053232578	85.11230668622237	0	0
7.759999999999923	-4.417676374774296	-0.2289115886363584	32.12614811925749	0	0.9399999999999999	0	40.56658926450813	-13.02040362363279	-11.6470001432206	48.13346066009368	0.8400873688977978	0	0	0	40.56658926450813	-13.02040362363279	-11.6470001432206	48.13346066009368	0.8400873688977978	0	0	0	-3.51725160008799	-0.7839703807666658	0.5213808923174835	8.860298934006565	-6.594299043435977	-3.854330560749732	59.6057667994308	106.5446363975731	0	0	45.50796487907447	-16.57710339186948	-5.865872864178022	54.63905248075374	85.32529607953846	0	0
7.779999999999922	-4.4219687507457	-0.1972808469723414	32.06331986141103	0	0.9399999999999999	0	40.5681112845171	-13.01679166685352	-11.64574037349101	48.13505821362377	0.8401152514668748	0	0	0	40.5681112845171	-13.01679166685352	-11.64574037349101	48.13505821362377	0.8401152514668748	0	0	0	-3.503969054658916	-0.7599714137806112	0.6114571717180415	8.826019239769918	-6.621946580011891	-3.909896295971638	59.57596756564854	106.5928683095703	0	0	45.98305243217698	-16.40880489735568	-5.450471277208642	53.59174368212717	85.48871558291044	0	0
7.799999999999922	-4.429237694362697	-0.1689993399179951	32.04183998735014	0	0.9399999999999999	0	40.56983259205686	-13.01277532491666	-11.64433120376648	48.13689214127561	0.8401472595426428	0	0	0	40.56983259205686	-13.01277532491666	-11.64433120376648	48.13689214127561	0.8401472595426428	0	0	0	-3.495169351995924	-0.7316419712715325	0.6193521576656861	8.809281001792488	-6.63249148876212	-3.899173203692118	59.53337556178931	106.6548372771879	0	0	45.94141647917932	-16.29725287083169	-5.515153029347866	53.0193655585852	85.94730477745327	0	0
7.819999999999921	-4.440216863843161	-0.1507606655400435	31.965281935247	0	0.9399999999999999	0	40.57113850802821	-13.00967372561865	-11.64324943486944	48.13826004978599	0.840171134050015	0	0	0	40.57113850802821	-13.00967372561865	-11.64324943486944	48.13826004978599	0.840171134050015	0	0	0	-3.494658659852758	-0.7177340884325776	0.7463280566663006	8.810915301719252	-6.649652902521543	-3.944093645832516	59.57708639975398	106.4755676536711	0	0	46.59116177740292	-16.10731041925835	-4.587185901432014	52.17999612271615	85.79096379124843	0	0
7.839999999999921	-4.464204634108849	-0.1070371059525156	31.92672284654738	0	0.9399999999999999	0	40.57218694588667	-13.00718730265625	-11.64238169909855	48.13935922428674	0.840190318264107	0	0	0	40.57218694588667	-13.00718730265625	-11.64238169909855	48.13935922428674	0.840190318264107	0	0	0	-3.491911483476678	-0.670265969538142	0.7929260154442648	8.806386457953595	-6.721815349072746	-3.923335016482643	59.59542772539579	106.4504887235104	0	0	46.79008969098767	-15.97244657510364	-4.233321520681609	51.9878813478133	85.62079277216156	0	0
7.85999999999992	-4.470864140555355	-0.09900421010728291	31.90212996729294	0	0.9399999999999999	0	40.57360938318218	-13.00381060353963	-11.64120351429755	48.14084823957612	0.8402163064835193	0	0	0	40.57360938318218	-13.00381060353963	-11.64120351429755	48.14084823957612	0.8402163064835193	0	0	0	-3.493305104358276	-0.6634448313074253	0.8606833301100763	8.792896865648663	-6.705924042641835	-3.966500835678636	59.60852092666073	106.4338456525703	0	0	46.9752360447365	-15.83423197409219	-3.781522544684725	51.5259926900006	85.74170324822416	0	0
7.87999999999992	-4.46995728977406	-0.09802141514045119	31.86260821669399	0	0.9399999999999999	0	40.57508146178178	-13.00031725927946	-11.63998431818151	48.14238870340742	0.8402431926493833	0	0	0	40.57508146178178	-13.00031725927946	-11.63998431818151	48.14238870340742	0.8402431926493833	0	0	0	-3.491922641309257	-0.6654874582878031	0.9118131470811778	8.781925745626152	-6.68959247898539	-3.95869138184382	59.63855363071065	106.4112729780516	0	0	47.11114947506508	-15.69670386449904	-3.393759547295973	51.10330249036331	85.94465437319643	0	0
7.89999999999992	-4.489177828043398	-0.0862178152146274	31.83118514297974	0	0.9399999999999999	0	40.57639672084338	-12.99719707735592	-11.63889509372222	48.14376463233119	0.8402672071393765	0	0	0	40.57639672084338	-12.99719707735592	-11.63889509372222	48.14376463233119	0.8402672071393765	0	0	0	-3.502073552388815	-0.6478411574180684	0.9621670031401806	8.785372457482854	-6.731568688215419	-3.967042955316737	59.64619915358226	106.3828131095128	0	0	47.22137800516291	-15.48066464346623	-3.063566937969261	50.8235173277877	85.9092067959227	0	0
7.919999999999919	-4.494863944260544	-0.08137288341823944	31.80219464523563	0	0.9399999999999999	0	40.57799638820008	-12.99340644147587	-11.63757110985109	48.14543862153482	0.8402964237626227	0	0	0	40.57799638820008	-12.99340644147587	-11.63757110985109	48.14543862153482	0.8402964237626227	0	0	0	-3.504365248520217	-0.6428006451230014	1.007856292435272	8.777311347824108	-6.723993467595418	-3.939115992887112	59.675562113635	106.3290088095083	0	0	47.27989203375436	-15.27223385500175	-2.797589941556843	50.60621807107852	85.86169112417701	0	0
7.939999999999919	-4.479462128307233	-0.08100745419614926	31.78405190265493	0	0.9399999999999999	0	40.57839497257028	-12.99249982855468	-11.63724993293434	48.14587144032618	0.8403039778755963	0	0	0	40.57839497257028	-12.99249982855468	-11.63724993293434	48.14587144032618	0.8403039778755963	0	0	0	-3.491051573426799	-0.6517351718148005	1.027658905666182	8.774415850134375	-6.656362510870749	-3.865497404527441	59.67753497606238	106.3124119726792	0	0	47.30744465721333	-14.99608822944224	-2.836324506765288	50.56182896730792	85.82285873145935	0	0
7.959999999999918	-4.482592582050913	-0.06265087538254115	31.80859802722077	0	0.9399999999999999	0	40.58638575356123	-12.97168436630996	-11.63029964930805	48.15412804395686	0.8404480827939839	0	0	0	40.58638575356123	-12.97168436630996	-11.63029964930805	48.15412804395686	0.8404480827939839	0	0	0	-3.484491354255542	-0.6318283764042774	1.042950580364338	8.753398738941584	-6.716569952982655	-3.899528068654842	59.68508669572803	106.2852799464966	0	0	47.31375316014518	-14.92489048955287	-2.822827595301903	50.60507961471027	85.80972793464782	0	0
7.979999999999918	-4.467786824877633	-0.0635380202650751	31.84465683463459	0	0.9399999999999999	0	40.58672007984164	-12.97091729331696	-11.63002842466999	48.15448662835804	0.8404543412724309	0	0	0	40.58672007984164	-12.97091729331696	-11.63002842466999	48.15448662835804	0.8404543412724309	0	0	0	-3.472364860760873	-0.6401170240531142	1.040170599662219	8.736320861183286	-6.672352262908483	-3.929819545870011	59.68450471608627	106.2690830569471	0	0	47.36716124134835	-14.85587862589763	-2.966375351995146	50.60670968588467	85.79239598615406	0	0
7.999999999999917	-4.467241181980209	-0.03955508935539196	31.87772353469348	0	0.9399999999999999	0	40.58726843141626	-12.96965032465673	-11.62958152552146	48.15507104794227	0.8404645413183888	0	0	0	40.58726843141626	-12.96965032465673	-11.62958152552146	48.15507104794227	0.8404645413183888	0	0	0	-3.459214619371056	-0.6197899594771767	1.040316199491496	8.717921726972341	-6.69783863823226	-3.970600359057948	59.68530658528987	106.2603005568961	0	0	47.42603854081273	-14.74099788096135	-3.143724929961882	50.59519457925354	85.7495270980764	0	0
